<svg width="18" height="18" viewBox="0 0 18 18" fill="none" xmlns="http://www.w3.org/2000/svg">
<path d="M9.06003 1.28613C4.74648 1.28613 2.57129 4.37858 2.57129 6.95794C2.57129 8.51941 3.16247 9.90847 4.43025 10.4257C4.63821 10.5114 4.82458 10.4288 4.88491 10.1987C4.92682 10.0399 5.0262 9.63796 5.07033 9.47C5.13097 9.24235 5.10748 9.16298 4.93952 8.96391C4.57408 8.53306 4.34008 7.9749 4.34008 7.18369C4.34008 4.88943 6.0568 2.83553 8.81015 2.83553C11.2482 2.83553 12.5878 4.32524 12.5878 6.31437C12.5878 8.93247 11.4292 11.142 9.70963 11.142C8.75967 11.142 8.04911 10.3568 8.27644 9.39316C8.54917 8.24286 9.07781 7.00208 9.07781 6.17118C9.07781 5.42823 8.67871 4.80847 7.85353 4.80847C6.88261 4.80847 6.10252 5.81304 6.10252 7.15829C6.10252 8.01522 6.39208 8.59497 6.39208 8.59497C6.39208 8.59497 5.39862 12.805 5.22431 13.5422C4.87761 15.0107 5.17225 16.8103 5.19733 16.9919C5.21193 17.0998 5.35036 17.1259 5.41323 17.0446C5.50244 16.9274 6.65941 15.4999 7.05216 14.0731C7.1636 13.6696 7.69065 11.5779 7.69065 11.5779C8.00625 12.1799 8.92826 12.7088 9.9087 12.7088C12.8268 12.7088 14.8071 10.0485 14.8071 6.48741C14.8074 3.79406 12.5265 1.28613 9.06003 1.28613Z" fill="#1A4B5D"/>
</svg>
