<svg width="11" height="17" viewBox="0 0 11 17" fill="none" xmlns="http://www.w3.org/2000/svg">
<path d="M8.50384 8.94463C7.933 8.54034 7.41417 7.94745 7.40514 7.76535C7.40514 7.43368 7.43477 7.27507 8.17868 6.69555C9.14045 5.94261 9.67011 4.95266 9.67011 3.9067C9.67011 2.9583 9.38035 2.11575 8.88718 1.52395H9.26979C9.34892 1.52395 9.4266 1.49938 9.48982 1.45314L10.5575 0.679599C10.6901 0.584578 10.7457 0.41513 10.6951 0.260134C10.6442 0.105499 10.5011 0 10.3381 0H5.56325C5.04081 0 4.51007 0.0921307 3.98908 0.271334C2.24907 0.871448 1.03223 2.35421 1.03223 3.87635C1.03223 6.03294 2.70286 7.66744 4.93604 7.71875C4.89232 7.88964 4.87028 8.058 4.87028 8.22312C4.87028 8.55551 4.95446 8.8702 5.12789 9.17441C5.10765 9.17441 5.08814 9.17441 5.06647 9.17441C2.9377 9.17441 1.01633 10.2189 0.28687 11.7732C0.0968275 12.1775 0 12.5861 0 12.9897C0 13.3821 0.100802 13.7596 0.298431 14.1144C0.756917 14.9346 1.74145 15.5708 3.07211 15.9068C3.75893 16.0802 4.49706 16.1688 5.26337 16.1688C5.952 16.1688 6.60848 16.0799 7.21546 15.9043C9.10793 15.3548 10.3316 13.9616 10.3316 12.3535C10.3313 10.8104 9.83522 9.88653 8.50384 8.94463ZM2.47344 12.477C2.47344 11.3545 3.89948 10.3699 5.52495 10.3699H5.56867C5.92238 10.3743 6.26742 10.4263 6.59258 10.526C6.70422 10.603 6.81189 10.6763 6.91522 10.7468C7.66816 11.2598 8.16567 11.5984 8.30405 12.1417C8.33656 12.2787 8.35282 12.4156 8.35282 12.5482C8.35282 13.9461 7.31048 14.6546 5.25362 14.6546C3.69462 14.6546 2.47344 13.6986 2.47344 12.477ZM3.95259 1.87043C4.20658 1.58031 4.53933 1.42712 4.91291 1.42712L4.95519 1.42785C6.01053 1.45892 7.02036 2.63494 7.20607 4.04942C7.31048 4.84138 7.13417 5.58601 6.73602 6.0398C6.4813 6.33064 6.15325 6.48383 5.76449 6.48383C5.76449 6.48383 5.76449 6.48383 5.76377 6.48383H5.74679C4.71312 6.45204 3.68161 5.23122 3.49699 3.81855C3.3933 3.02875 3.5595 2.3188 3.95259 1.87043Z" fill="#174B5C"/>
</svg>
