<svg width="31" height="31" viewBox="0 0 31 31" fill="none" xmlns="http://www.w3.org/2000/svg">
<path d="M10.6657 10.2137C10.6657 10.2137 4.8729 10.8653 1.00858 11.301C0.660274 11.3438 0.352302 11.5802 0.236812 11.9395C0.121322 12.2988 0.236812 12.673 0.493456 12.9094C3.3642 15.5698 7.67765 19.5537 7.67765 19.5537C7.67398 19.5537 6.49342 25.3491 5.70883 29.2158C5.64283 29.5658 5.76749 29.9362 6.06813 30.1578C6.36693 30.3793 6.7519 30.383 7.05437 30.2099C10.4347 28.2589 15.498 25.3249 15.498 25.3249C15.498 25.3249 20.563 28.2589 23.9379 30.2118C24.2458 30.383 24.6308 30.3793 24.9296 30.1578C25.2303 29.9362 25.3549 29.5658 25.2871 29.2176C24.5025 25.3491 23.3238 19.5537 23.3238 19.5537C23.3238 19.5537 27.6372 15.5698 30.508 12.915C30.7646 12.6711 30.8783 12.2969 30.7646 11.9395C30.6509 11.5821 30.343 11.3456 29.9947 11.3047C26.1303 10.8653 20.3357 10.2137 20.3357 10.2137C20.3357 10.2137 17.9342 4.81863 16.3339 1.22189C16.1836 0.899823 15.8683 0.674561 15.498 0.674561C15.1277 0.674561 14.8105 0.901684 14.6675 1.22189C13.0653 4.81863 10.6657 10.2137 10.6657 10.2137Z" fill="#2ABECE"/>
</svg>
