<svg width="19" height="16" viewBox="0 0 19 16" fill="none" xmlns="http://www.w3.org/2000/svg">
<path d="M17.5 1.00754C16.7818 1.51415 15.9866 1.90162 15.145 2.15504C14.6933 1.63567 14.093 1.26756 13.4253 1.10049C12.7576 0.933412 12.0546 0.975438 11.4116 1.22088C10.7685 1.46633 10.2163 1.90334 9.82974 2.47283C9.44314 3.04232 9.24077 3.71679 9.25 4.40504V5.15504C7.93198 5.18922 6.62596 4.8969 5.44826 4.30413C4.27056 3.71135 3.25774 2.83652 2.5 1.75754C2.5 1.75754 -0.5 8.50754 6.25 11.5075C4.7054 12.556 2.86537 13.0817 1 13.0075C7.75 16.7575 16 13.0075 16 4.38254C15.9993 4.17363 15.9792 3.96524 15.94 3.76004C16.7055 3.00516 17.2456 2.05208 17.5 1.00754V1.00754Z" stroke="#194C5D" stroke-width="2" stroke-linecap="round" stroke-linejoin="round"/>
</svg>
