<svg width="45" height="34" viewBox="0 0 45 34" fill="none" xmlns="http://www.w3.org/2000/svg">
<path d="M45 9.19344V3.19612C45 1.9775 44.0367 0.989746 42.8484 0.989746H2.15158C0.963318 0.989746 0 1.9775 0 3.19612V9.19344H45Z" fill="#97E8EC"/>
<path d="M0 14.3462V31.6235C0 32.8421 0.963318 33.8301 2.15158 33.8301H42.8484C44.0367 33.8301 45 32.8421 45 31.6235V14.3462H0ZM11.1182 28.897H6C5.17163 28.897 4.5 28.2083 4.5 27.3588C4.5 26.5094 5.17163 25.8206 6 25.8206H11.1182C11.9465 25.8206 12.6182 26.5094 12.6182 27.3588C12.6182 28.2083 11.9465 28.897 11.1182 28.897ZM16.2356 23.1288H6C5.17163 23.1288 4.5 22.44 4.5 21.5906C4.5 20.7411 5.17163 20.0524 6 20.0524H16.2356C17.064 20.0524 17.7356 20.7411 17.7356 21.5906C17.7356 22.44 17.064 23.1288 16.2356 23.1288Z" fill="#97E8EC"/>
</svg>
